<svg xmlns="http://www.w3.org/2000/svg" viewBox="0 0 1800 1000" preserveAspectRatio="xMidYMid slice">
  <defs>
    <linearGradient id="sky" x1="0" x2="0.85" y1="0" y2="1">
      <stop offset="0" stop-color="#172542"/>
      <stop offset="0.24" stop-color="#60315d"/>
      <stop offset="0.48" stop-color="#d85d4b"/>
      <stop offset="0.66" stop-color="#ff9b4a"/>
      <stop offset="1" stop-color="#111a2b"/>
    </linearGradient>
    <radialGradient id="sun-glow" cx="70%" cy="35%" r="34%">
      <stop offset="0" stop-color="#ffe28c" stop-opacity="0.95"/>
      <stop offset="0.42" stop-color="#ff8d4d" stop-opacity="0.72"/>
      <stop offset="1" stop-color="#ff5e4c" stop-opacity="0"/>
    </radialGradient>
    <linearGradient id="road" x1="0" x2="0" y1="0" y2="1">
      <stop offset="0" stop-color="#1e2432"/>
      <stop offset="0.5" stop-color="#101824"/>
      <stop offset="1" stop-color="#05080d"/>
    </linearGradient>
    <linearGradient id="reflection" x1="0" x2="1" y1="0" y2="0">
      <stop offset="0" stop-color="#ff4f3f" stop-opacity="0.78"/>
      <stop offset="0.5" stop-color="#ffb457" stop-opacity="0.4"/>
      <stop offset="1" stop-color="#3aa5ff" stop-opacity="0.48"/>
    </linearGradient>
    <filter id="blur">
      <feGaussianBlur stdDeviation="5"/>
    </filter>
  </defs>

  <rect width="1800" height="1000" fill="url(#sky)"/>
  <rect width="1800" height="1000" fill="url(#sun-glow)"/>

  <g opacity="0.92">
    <path d="M-50 138c120-58 245-66 374-23 118 39 227 34 326-16 140-70 292-70 456 0 126 54 247 57 362 8 150-65 284-63 402 7v244H-50z" fill="#1e2947" opacity="0.68"/>
    <path d="M35 214c162-55 296-41 402 43 92 72 203 77 333 15 150-72 301-55 452 52 87 61 179 67 276 18 128-65 240-62 337 8v138H35z" fill="#fb6949" opacity="0.48"/>
    <path d="M0 190c90 26 176 30 258 12 88-19 176-11 264 26 91 38 185 40 282 6 139-49 275-35 408 43 112 65 231 78 358 37 108-35 191-29 249 18v122H0z" fill="#2b3154" opacity="0.42"/>
  </g>

  <g fill="#0a111e">
    <rect x="640" y="425" width="54" height="190"/>
    <rect x="720" y="365" width="72" height="250"/>
    <rect x="826" y="310" width="70" height="305"/>
    <rect x="928" y="210" width="84" height="405"/>
    <rect x="1038" y="385" width="74" height="230"/>
    <rect x="1142" y="342" width="94" height="273"/>
    <rect x="1270" y="412" width="66" height="203"/>
    <rect x="1372" y="372" width="88" height="243"/>
  </g>
  <g fill="#192439" opacity="0.8">
    <rect x="672" y="452" width="9" height="9"/><rect x="748" y="392" width="9" height="9"/>
    <rect x="856" y="340" width="8" height="8"/><rect x="958" y="246" width="8" height="8"/>
    <rect x="1080" y="420" width="8" height="8"/><rect x="1184" y="370" width="8" height="8"/>
    <rect x="1300" y="448" width="8" height="8"/><rect x="1410" y="405" width="8" height="8"/>
  </g>

  <path d="M0 610c215-54 395-72 540-54 168 21 313 2 436-57 174-83 366-81 576 8 88 37 171 51 248 41v452H0z" fill="#111827" opacity="0.78"/>
  <path d="M0 650h1800v350H0z" fill="url(#road)"/>
  <path d="M420 650 105 1000H0V705z" fill="#0a1018"/>
  <path d="M1110 650 1510 1000h290V712z" fill="#0a1018"/>
  <path d="M655 650 470 1000h62l174-350zM882 650 850 1000h84l18-350zM1015 650l174 350h64l-190-350z" fill="#202b3d" opacity="0.88"/>

  <g opacity="0.84" filter="url(#blur)">
    <path d="M430 770c-110 55-210 119-300 191" stroke="url(#reflection)" stroke-width="18" fill="none"/>
    <path d="M1015 708c182 83 333 175 452 276" stroke="url(#reflection)" stroke-width="16" fill="none"/>
    <path d="M610 696c-138 72-252 167-342 285" stroke="#ff7b47" stroke-width="10" fill="none" opacity="0.7"/>
    <path d="M893 690c102 91 187 190 254 298" stroke="#3aa5ff" stroke-width="8" fill="none" opacity="0.45"/>
  </g>

  <g stroke="#080d14" stroke-width="15" stroke-linecap="round" opacity="0.96">
    <path d="M180 616c26-146 21-292-15-438"/>
    <path d="M166 200c-58-34-112-43-164-27M169 205c51-47 108-65 171-54M170 211c-69 4-127 30-173 78M171 210c68-1 124 23 168 72"/>
    <path d="M355 630c14-111 7-220-22-327"/>
    <path d="M334 320c-44-27-86-34-126-22M336 324c41-34 86-47 135-38M336 329c-55 4-101 25-138 62M337 328c53-2 98 17 134 55"/>
    <path d="M1510 622c-16-132-5-260 34-383"/>
    <path d="M1542 260c-58-36-113-45-166-28M1541 266c55-45 113-63 175-52M1540 273c-68 6-126 34-174 83M1541 272c66-3 123 21 170 72"/>
  </g>

  <g transform="translate(220 724)" opacity="0.96">
    <path d="M18 94c28-52 80-80 158-87l142-12c91-8 162 24 212 94l79 10c32 5 56 27 64 58H-16c4-32 15-53 34-63z" fill="#090d13"/>
    <path d="M108 70c28-28 69-44 122-48l74-5c56-4 106 14 148 53H108z" fill="#1b2941"/>
    <rect x="70" y="100" width="478" height="32" rx="10" fill="#a92928" opacity="0.58"/>
    <circle cx="105" cy="160" r="42" fill="#04070b"/>
    <circle cx="105" cy="160" r="22" fill="#2d3742"/>
    <circle cx="505" cy="160" r="42" fill="#04070b"/>
    <circle cx="505" cy="160" r="22" fill="#2d3742"/>
    <circle cx="40" cy="112" r="16" fill="#ff5a37"/>
    <circle cx="579" cy="113" r="18" fill="#ffcf72"/>
  </g>

  <g fill="#ffbe58" opacity="0.9">
    <circle cx="750" cy="640" r="4"/><circle cx="785" cy="633" r="3"/><circle cx="826" cy="629" r="4"/>
    <circle cx="1092" cy="627" r="3"/><circle cx="1164" cy="642" r="4"/><circle cx="1242" cy="658" r="3"/>
    <circle cx="1340" cy="660" r="4"/><circle cx="1430" cy="675" r="3"/>
  </g>

  <rect width="1800" height="1000" fill="#020509" opacity="0.16"/>
</svg>
