<svg xmlns="http://www.w3.org/2000/svg" viewBox="0 0 1800 1000" preserveAspectRatio="xMidYMid slice">
  <defs>
    <linearGradient id="sky" x1="0" x2="1" y1="0" y2="1">
      <stop offset="0" stop-color="#19233d"/>
      <stop offset="0.38" stop-color="#6d3854"/>
      <stop offset="0.72" stop-color="#e07c45"/>
      <stop offset="1" stop-color="#111722"/>
    </linearGradient>
    <radialGradient id="sun" cx="68%" cy="31%" r="22%">
      <stop offset="0" stop-color="#ffe08a"/>
      <stop offset="0.5" stop-color="#ff8f5a"/>
      <stop offset="1" stop-color="#ff8f5a" stop-opacity="0"/>
    </radialGradient>
    <linearGradient id="road" x1="0" x2="0" y1="0" y2="1">
      <stop offset="0" stop-color="#27303b"/>
      <stop offset="1" stop-color="#090d12"/>
    </linearGradient>
    <filter id="soft">
      <feGaussianBlur stdDeviation="2"/>
    </filter>
  </defs>

  <rect width="1800" height="1000" fill="url(#sky)"/>
  <rect width="1800" height="1000" fill="url(#sun)"/>
  <path d="M0 580c180-60 314-76 470-50 198 33 319 23 507-28 185-50 362-42 538 20 116 41 196 45 285 30v448H0z" fill="#101821" opacity="0.72"/>

  <g fill="#0b1118" opacity="0.9">
    <rect x="55" y="435" width="55" height="190"/>
    <rect x="130" y="390" width="90" height="235"/>
    <rect x="250" y="460" width="68" height="165"/>
    <rect x="360" y="415" width="110" height="210"/>
    <rect x="520" y="365" width="80" height="260"/>
    <rect x="640" y="450" width="130" height="175"/>
    <rect x="810" y="400" width="100" height="225"/>
    <rect x="970" y="455" width="80" height="170"/>
    <rect x="1085" y="360" width="130" height="265"/>
    <rect x="1260" y="430" width="75" height="195"/>
    <rect x="1380" y="380" width="110" height="245"/>
    <rect x="1530" y="455" width="95" height="170"/>
    <rect x="1660" y="410" width="80" height="215"/>
  </g>

  <g fill="#111a22" opacity="0.72">
    <path d="M0 700h1800v300H0z"/>
    <path d="M0 700c268 36 518 54 750 54 396 0 702-54 1050-110v356H0z"/>
  </g>

  <g stroke="#0a1016" stroke-width="16" stroke-linecap="round" opacity="0.9">
    <path d="M154 695c34-140 34-274 0-400"/>
    <path d="M154 326c-46-38-90-52-132-42M159 332c44-47 93-70 148-70M159 340c-59 0-114 20-166 60M159 338c52-5 106 15 162 60"/>
    <path d="M1605 684c-22-118-12-232 30-344"/>
    <path d="M1634 365c-48-28-96-35-144-21M1630 370c52-39 105-55 160-48M1628 378c-56 7-105 31-148 72M1628 376c57-1 108 18 153 57"/>
  </g>

  <g transform="translate(540 680)" opacity="0.95">
    <path d="M0 125c42-68 122-105 240-112l224-13c128-7 228 30 300 112l122 18c42 6 75 38 81 80H-52c6-43 24-71 52-85z" fill="#090d12"/>
    <path d="M155 88c42-40 100-62 174-66l118-7c82-4 153 20 211 73H155z" fill="#172333"/>
    <circle cx="159" cy="216" r="56" fill="#05080b"/>
    <circle cx="159" cy="216" r="28" fill="#2f3a43"/>
    <circle cx="725" cy="216" r="56" fill="#05080b"/>
    <circle cx="725" cy="216" r="28" fill="#2f3a43"/>
    <path d="M22 133h854" stroke="#e2554f" stroke-width="5" opacity="0.55"/>
  </g>

  <rect width="1800" height="1000" fill="#000" opacity="0.16"/>
  <g opacity="0.11" filter="url(#soft)">
    <path d="M-120 890c280-60 575-82 884-66 277 14 624-19 1156-98" stroke="#72a9ff" stroke-width="4" fill="none"/>
    <path d="M-130 940c320-56 668-78 1044-66 314 10 646-4 996-42" stroke="#ff7669" stroke-width="3" fill="none"/>
  </g>
</svg>
